<?xml version="1.0" encoding="UTF-8"?>
<svg width="290px" height="295px" viewBox="0 0 290 295" version="1.1" xmlns="http://www.w3.org/2000/svg" xmlns:xlink="http://www.w3.org/1999/xlink">
    <title>logo-likeaboss</title>
    <defs>
        <linearGradient x1="0.615567882%" y1="92.7360208%" x2="103.486714%" y2="-10.484375%" id="linearGradient-1">
            <stop stop-color="#B44FDB" offset="0%"></stop>
            <stop stop-color="#00D9F5" offset="99.87%"></stop>
        </linearGradient>
        <linearGradient x1="-357.442736%" y1="164.949735%" x2="589.780747%" y2="-102.286992%" id="linearGradient-2">
            <stop stop-color="#B44FDB" offset="0%"></stop>
            <stop stop-color="#00D9F5" offset="99.87%"></stop>
        </linearGradient>
        <linearGradient x1="-340.911345%" y1="165.111361%" x2="608.259439%" y2="-114.390105%" id="linearGradient-3">
            <stop stop-color="#B44FDB" offset="0%"></stop>
            <stop stop-color="#00D9F5" offset="99.87%"></stop>
        </linearGradient>
        <linearGradient x1="-326.248499%" y1="165.676794%" x2="625.133459%" y2="-126.820395%" id="linearGradient-4">
            <stop stop-color="#B44FDB" offset="0%"></stop>
            <stop stop-color="#00D9F5" offset="99.87%"></stop>
        </linearGradient>
        <linearGradient x1="-308.004024%" y1="155.348489%" x2="640.391454%" y2="-123.732976%" id="linearGradient-5">
            <stop stop-color="#B44FDB" offset="0%"></stop>
            <stop stop-color="#00D9F5" offset="99.87%"></stop>
        </linearGradient>
        <linearGradient x1="-291.861795%" y1="149.722249%" x2="655.727998%" y2="-126.692174%" id="linearGradient-6">
            <stop stop-color="#B44FDB" offset="0%"></stop>
            <stop stop-color="#00D9F5" offset="99.87%"></stop>
        </linearGradient>
        <linearGradient x1="-272.073003%" y1="141.312186%" x2="673.655849%" y2="-126.815016%" id="linearGradient-7">
            <stop stop-color="#B44FDB" offset="0%"></stop>
            <stop stop-color="#00D9F5" offset="99.87%"></stop>
        </linearGradient>
    </defs>
    <g id="logo-likeaboss" stroke="none" stroke-width="1" fill="none" fill-rule="evenodd">
        <circle id="Oval" fill="#383248" cx="145" cy="149" r="140"></circle>
        <g id="logo-like-a-boss-copy" transform="translate(58.000000, 66.000000)" fill-rule="nonzero">
            <g id="Group" transform="translate(21.510417, 25.520833)" fill="#FFFFFF">
                <path d="M118.022188,43.1889062 C111.29526,41.1505208 110.241979,39.7909896 110.241979,37.8207812 C110.241979,36.0882812 111.782344,34.53625 114.873646,34.53625 C118.825729,34.53625 120.875781,36.46125 122.348698,39.5532812 L130.695104,34.6722396 C127.546563,28.2964062 121.986302,24.8984896 114.87401,24.8984896 C108.713281,24.8984896 102.835469,28.1830208 100.966615,34.0035937 C97.7619271,28.0692708 92.3595313,24.8984896 85.4966146,24.8984896 C78.3617188,24.8984896 71.623125,29.3041146 71.0233854,36.9596354 C67.2860417,29.7004167 59.7439063,24.8984896 51.034375,24.8984896 C41.9970833,24.8984896 34.2052083,30.0741146 30.6264583,37.7861458 C30.4452604,30.5043229 24.4092188,25.7702083 16.9797396,25.7702083 L0.0484895833,25.7702083 L0.0484895833,69.0210937 L18.2142188,69.0210937 C24.9076042,69.0210937 30.4795313,65.2724479 31.8496354,59.2929167 C35.5640104,65.3176562 42.030625,69.3605208 49.5166146,69.8476042 C50.0146354,69.8815104 50.5243229,69.8928125 51.0340104,69.8928125 C51.4077083,69.8928125 51.7704688,69.8811458 52.1434375,69.8589062 L52.7548438,67.0840625 C53.0268229,66.4500521 55.348125,61.9536458 64.9858854,61.9536458 C66.0960417,61.9536458 67.1602604,61.9988542 68.1570313,62.1005729 C68.6776563,61.5001042 69.1538021,60.8660937 69.6066146,60.2094792 C69.969375,61.0020833 70.3766146,61.7498437 70.8520313,62.4633333 C73.8080729,62.995625 76.2201563,63.9245833 78.1568229,64.9775 C80.9652083,66.5178646 82.8001563,68.3411458 83.8986458,69.7225521 C83.9095833,69.7334896 83.92125,69.7568229 83.9321875,69.7677604 C84.7590625,69.846875 85.6085417,69.8920833 86.4919271,69.8920833 C86.7186979,69.8920833 86.9451042,69.8920833 87.1715104,69.8804167 C93.3661458,69.7218229 98.3040625,67.36625 100.795625,63.266875 C103.853385,67.3323437 108.881354,69.8920833 115.857656,69.8920833 C125.257708,69.8920833 131.928125,64.9432292 131.928125,56.5964583 C131.928125,47.4585417 124.579219,45.1707812 118.022188,43.1889062 Z M9.93526042,35.035 L16.979375,35.035 C19.2671354,35.035 20.7509896,36.6431771 20.7509896,38.8740625 C20.7509896,41.0936458 19.1996875,42.7018229 16.979375,42.7018229 L9.93526042,42.7018229 L9.93526042,35.035 Z M18.2134896,59.7573958 L9.93489583,59.7573958 L9.93489583,51.4791667 L18.2134896,51.4791667 C20.6824479,51.4791667 22.290625,53.2007292 22.290625,55.6128125 C22.290625,58.0248958 20.6824479,59.7573958 18.2134896,59.7573958 Z M38.4176042,47.4020312 C38.4176042,39.6666667 43.9895313,34.5369792 51.0340104,34.5369792 C58.078125,34.5369792 63.63875,39.6673958 63.63875,47.4020312 C63.63875,55.1257292 58.078125,60.2561458 51.0340104,60.2561458 C43.9898958,60.2561458 38.4176042,55.1257292 38.4176042,47.4020312 Z M86.7989063,60.2561458 C81.9178646,60.2561458 79.2677083,57.8440625 77.7164063,54.2540104 L70.8082813,58.2633333 C72.5407813,55.0695833 73.5258854,51.3778125 73.5258854,47.4027604 C73.5258854,46.7796875 73.4916146,46.1682812 73.4464063,45.556875 C75.8701563,48.5355208 79.7657292,50.1320312 83.7072396,51.2305208 C90.1964583,53.0198958 92.6763543,54.0731771 92.6763543,56.7229687 C92.6767188,58.3985937 91.4983854,60.2561458 86.7989063,60.2561458 Z M116.175938,60.2561458 C111.294896,60.2561458 108.633438,57.8440625 107.093438,54.2540104 L102.551823,56.8815625 C102.551823,56.7907812 102.56349,56.7003646 102.56349,56.5986458 C102.56349,47.4592708 95.2025521,45.1715104 88.6560938,43.1896354 C81.9175,41.15125 80.8642188,39.7917187 80.8642188,37.8215104 C80.8642188,36.0890104 82.4158854,34.5369792 85.4966146,34.5369792 C89.4603646,34.5369792 91.49875,36.4619792 92.9826042,39.5540104 L100.683698,35.0466667 C100.468594,35.9865625 100.355208,36.995 100.355208,38.0592187 C100.355208,46.3491146 106.651927,49.4411458 113.085,51.2301562 C119.574219,53.0195312 122.043177,54.0728125 122.043177,56.7226042 C122.042448,58.3985937 120.875781,60.2561458 116.175938,60.2561458 Z" id="Shape"></path>
                <polygon id="Path" points="22.7656771 18.3261458 9.13390625 18.3261458 9.13390625 0.150572917 0.0463020833 0.150572917 0.0463020833 22.8699479 22.7656771 22.8699479"></polygon>
                <rect id="Rectangle" x="29.575" y="0.150572917" width="9.08796875" height="22.719375"></rect>
                <polygon id="Path" points="54.5591667 13.7823437 59.1029688 13.7823437 59.1029688 22.8699479 68.1913021 22.8699479 68.1913021 13.7823437 65.9188542 13.7823437 65.9188542 9.23817708 68.1913021 9.23817708 68.1913021 0.150572917 59.1029688 0.150572917 59.1029688 9.23817708 54.5591667 9.23817708 54.5591667 0.150572917 45.4711979 0.150572917 45.4711979 22.8699479 54.5591667 22.8699479"></polygon>
                <polygon id="Path" points="77.2723438 22.8699479 97.7192708 22.8699479 97.7192708 18.3261458 84.0878646 18.3261458 84.0878646 13.7823437 90.90375 13.7823437 90.90375 9.23817708 84.0878646 9.23817708 84.0878646 4.69473958 97.7192708 4.69473958 97.7192708 0.150572917 77.2723438 0.150572917 77.2723438 2.42229167 74.9998958 2.42229167 74.9998958 20.5978646 77.2723438 20.5978646"></polygon>
                <path d="M129.551042,2.41864583 L129.551042,0.153489583 L111.374375,0.153489583 L111.374375,2.41864583 L109.097917,2.41864583 L109.097917,22.8721354 L118.192083,22.8721354 L118.192083,13.7776042 L122.733698,13.7776042 L122.733698,22.8717708 L131.816198,22.8717708 L131.816198,2.41864583 L129.551042,2.41864583 Z M122.733333,9.23598958 L118.191719,9.23598958 L118.191719,4.69473958 L122.733333,4.69473958 L122.733333,9.23598958 Z" id="Shape"></path>
            </g>
            <g id="Group">
                <path d="M166.775365,16.1386458 L154.88375,16.1386458 L154.88375,10.0486458 C154.88375,7.43822917 153.118438,5.17854167 150.591146,4.55364583 C145.057135,3.18427083 127.830208,0 87.5,0 C47.1697917,0 29.9435938,3.18427083 24.4088542,4.55364583 C21.8811979,5.17890625 20.1155208,7.43859375 20.1155208,10.0486458 L20.1155208,16.1382812 L8.22390625,16.1382812 C3.85255208,16.1382812 0.296041667,19.6947917 0.296041667,24.0661458 L0.296041667,97.0185417 C0.296041667,101.389896 3.85255208,104.946406 8.22390625,104.946406 L20.1155208,104.946406 L20.1155208,146.184792 C20.1155208,154.245729 31.3060417,161.311354 54.3276563,167.78526 C70.5508854,172.347292 86.9888542,174.92125 87.1529167,174.946406 L87.5,175 L87.8474479,174.946406 C88.011875,174.92125 104.449844,172.347292 120.673073,167.78526 C143.693958,161.311354 154.884479,154.246094 154.884479,146.184792 L154.884479,104.946406 L166.776094,104.946406 C171.147448,104.946406 174.703958,101.389896 174.703958,97.0185417 L174.703958,24.0657812 C174.703958,19.6944271 171.146719,16.1386458 166.775365,16.1386458 Z M23.5138021,10.0435417 C23.5138021,8.99828125 24.2170833,8.09484375 25.2258854,7.84619792 C30.6399479,6.50890625 47.5464063,3.39791667 87.5007292,3.39791667 C127.455052,3.39791667 144.361875,6.50890625 149.775573,7.84619792 C150.784375,8.09484375 151.487656,8.99828125 151.487656,10.0435417 L151.487656,17.2714063 L142.42776,17.2714063 L142.42776,15.5914063 L141.473281,15.4401042 C132.913958,14.0794792 116.603229,12.4581771 87.5010938,12.4581771 C58.3975,12.4581771 42.0871354,14.0794792 33.5289063,15.4401042 L32.5744271,15.5914063 L32.5744271,17.2714063 L23.5138021,17.2714063 L23.5138021,10.0435417 L23.5138021,10.0435417 Z M138.369219,17.2714063 L36.6315104,17.2714063 C45.688125,16.0278125 61.4071354,14.7233333 87.5007292,14.7233333 C113.591406,14.7233333 129.311146,16.0278125 138.369219,17.2714063 Z M151.487292,146.185156 C151.487292,158.81724 105.471406,168.755781 87.5003646,171.562708 C69.5296875,168.755781 23.5134375,158.817604 23.5134375,146.185156 L23.5134375,103.817656 L32.5744271,103.817656 L32.5744271,145.087031 L32.9160417,145.421354 C38.3957292,150.769792 62.8016667,158.365521 87.3195313,162.354792 L87.5007292,162.383594 L87.6819271,162.354792 C112.202344,158.365521 136.607552,150.770156 142.085417,145.421354 L142.427031,145.087031 L142.427031,103.817656 L151.485833,103.817656 L151.485833,146.185156 L151.487292,146.185156 L151.487292,146.185156 Z M77.7309896,106.377396 L71.264375,106.377396 L71.9209896,103.353542 L78.7722396,103.353542 C79.2483854,103.353542 79.6330208,102.968177 79.6330208,102.49276 C79.6330208,102.017344 79.2483854,101.631979 78.7722396,101.631979 L72.2939583,101.631979 L73.075625,98.0419271 L79.926875,98.0419271 C80.4030208,98.0419271 80.7876563,97.6565625 80.7876563,97.1811458 C80.7876563,96.7057292 80.4030208,96.3094271 79.926875,96.3094271 L73.4485938,96.3094271 L73.6527604,95.3808333 L74.2641667,92.6059896 C74.5361458,91.9719792 76.8574479,87.4755729 86.4952083,87.4755729 C87.6053646,87.4755729 88.6695833,87.5207813 89.6663542,87.6225 C90.60625,87.7016146 91.5122396,87.8266667 92.3613542,87.9852604 C95.3173958,88.5175521 97.7294792,89.4465104 99.6661458,90.4994271 C102.474531,92.0397917 104.309479,93.8630729 105.407969,95.2444792 C105.419635,95.2554167 105.430573,95.27875 105.44224,95.2896875 C107.605677,98.0189583 108.738073,101.269219 108.590781,104.157083 L105.985833,102.559844 C105.849844,102.469063 105.69125,102.435521 105.533021,102.435521 C105.250104,102.435521 104.966823,102.582448 104.796563,102.843125 C104.558854,103.250729 104.683177,103.783021 105.091146,104.032396 L108.330104,106.014271 L107.594375,109.457396 L104.808229,107.88349 C104.67224,107.804375 104.525313,107.770104 104.378021,107.770104 C104.083438,107.770104 103.789219,107.928698 103.630625,108.211979 C103.403854,108.619583 103.539844,109.151875 103.959115,109.389948 L107.221042,111.224896 L106.541458,114.418646 L103.733073,112.833073 C103.597083,112.753958 103.450156,112.719688 103.302865,112.719688 C103.008281,112.719688 102.714063,112.878281 102.555469,113.161563 C102.31776,113.580469 102.464688,114.101458 102.883958,114.339531 L106.157188,116.185417 L105.477604,119.356563 L102.601042,117.872708 C102.476719,117.804896 102.340729,117.77099 102.20474,117.77099 C101.887552,117.77099 101.593333,117.940885 101.43474,118.246406 C101.219635,118.665313 101.378229,119.186302 101.808438,119.401771 L105.103906,121.111667 L104.390781,124.46401 L101.491615,122.957552 C101.355625,122.889375 101.219635,122.866771 101.095313,122.866771 C100.778125,122.866771 100.47224,123.036667 100.325313,123.33125 C100.110208,123.750156 100.268438,124.271146 100.69901,124.48625 L104.017083,126.207813 L103.156302,130.228073 L100.234531,128.721615 C100.109479,128.653802 99.9742188,128.630833 99.8382292,128.630833 C99.5323438,128.630833 99.2268229,128.800729 99.0798958,129.095312 C98.853125,129.514219 99.0230208,130.035208 99.4419271,130.250677 L102.783333,131.983177 L101.729688,136.89849 C101.061771,139.718542 98.7853125,141.190729 95.7166146,141.938125 C93.3041667,142.51599 90.4159375,142.651979 87.4493229,142.651979 L86.4977604,142.651979 C80.7442708,142.651979 72.4208333,139.741146 68.4454167,134.849167 C66.6903125,132.685729 66.0442708,130.41 66.5313542,128.110573 L67.3013542,124.543125 L74.1533333,124.543125 C74.62875,124.543125 75.0141146,124.15776 75.0141146,123.682344 C75.0141146,123.206927 74.62875,122.821562 74.1533333,122.821562 L67.6750521,122.821562 L68.6149479,118.518385 L75.4669271,118.518385 C75.9423438,118.518385 76.3277083,118.133021 76.3277083,117.657604 C76.3277083,117.182187 75.9423438,116.796823 75.4669271,116.796823 L68.9886458,116.796823 L69.7017708,113.557865 L76.5420833,113.557865 C77.0291667,113.557865 77.4138021,113.1725 77.4138021,112.697083 C77.4138021,112.221667 77.0291667,111.836302 76.5420833,111.836302 L70.0754688,111.836302 L70.8910417,108.098958 L77.7313542,108.098958 C78.2067708,108.098958 78.6030729,107.713594 78.6030729,107.238177 C78.6030729,106.76276 78.2071354,106.377396 77.7309896,106.377396 Z M110.925208,106.26401 C111.108594,105.473229 111.195,104.652187 111.207031,103.817656 L140.163333,103.817656 L140.163333,144.111406 C134.75474,148.752187 112.725885,155.609271 91.0441146,159.480417 C90.9609896,159.418802 90.8884375,159.344427 90.8002083,159.288646 L90.8002083,155.721198 C92.736875,155.426615 94.469375,154.113021 95.1941667,152.131146 L96.8140104,147.66901 C97.0407813,147.045938 97.1534375,146.411927 97.1534375,145.76625 C97.1534375,145.256563 97.0743229,144.758542 96.9383333,144.271458 C100.33625,143.297292 103.3375,141.360625 104.254063,137.465052 L110.925208,106.26401 Z M84.9340625,152.583594 C85.0357812,152.798698 85.1717708,153.0025 85.2960937,153.195 L83.2011979,153.195 C82.9182812,153.183333 82.6463021,153.115885 82.385625,153.025104 C81.6382292,152.753125 81.0486979,152.209531 80.7092708,151.48474 C80.3807812,150.770885 80.3465104,149.967344 80.6071875,149.219583 L82.2036979,144.825625 C83.4833854,145.052396 84.7178646,145.188385 85.8728646,145.221927 L84.7401042,148.324896 C84.2431771,149.73 84.3000521,151.235729 84.9340625,152.583594 Z M88.9543229,153.025469 C88.2069271,152.75349 87.6064583,152.209896 87.2779687,151.485104 C86.9385417,150.77125 86.9042708,149.956042 87.17625,149.219948 L88.6258333,145.244896 C90.3247917,145.233229 92.3515104,145.154115 94.4011979,144.82599 C94.5032812,145.131875 94.5597917,145.449062 94.5597917,145.765885 C94.5597917,146.105677 94.5029167,146.456771 94.3785937,146.78526 L92.7594792,151.247396 C92.3176042,152.447604 91.1855729,153.206667 89.9620312,153.206667 C89.6339063,153.206667 89.2828125,153.138854 88.9543229,153.025469 Z M88.2185938,155.788646 L88.2185938,158.687813 L86.7916146,158.687813 L86.7916146,155.788646 L88.2185938,155.788646 Z M63.9942187,127.577552 C63.3485417,130.635313 64.1983854,133.715677 66.4405729,136.478854 C69.5435417,140.306615 74.7078646,142.945469 79.6567187,144.259063 L78.1845312,148.336198 C77.6748437,149.729271 77.7426562,151.235365 78.3657292,152.583229 C78.9997396,153.931094 80.1098958,154.950469 81.48,155.44849 C81.9670833,155.629688 82.4877083,155.743073 83.1107813,155.776979 L84.1976042,155.776979 L84.1976042,159.287917 C84.1104687,159.34151 84.0375521,159.417708 83.9540625,159.478594 C62.2752083,155.607448 40.2489063,148.751458 34.8395833,144.110677 L34.8395833,103.816927 L69.181875,103.816927 L63.9942187,127.577552 Z M171.306042,97.0221875 C171.306042,99.5206771 169.274219,101.552135 166.775729,101.552135 L111.034583,101.552135 C110.706823,99.4765625 109.918594,97.3707292 108.68375,95.4027083 C108.310052,94.8022396 107.891146,94.2025 107.437604,93.6359375 C104.832656,90.3630729 98.660625,84.8928646 86.4977604,84.8928646 C74.4027083,84.8928646 71.9111458,91.5064062 71.8094271,91.7783854 L71.028125,95.3684375 L69.6777083,101.552135 L8.22463542,101.552135 C5.72614583,101.552135 3.6946875,99.5203125 3.6946875,97.0218229 L3.6946875,24.0661458 C3.6946875,21.5676563 5.72614583,19.5361979 8.22463542,19.5361979 L166.776094,19.5361979 C169.274583,19.5361979 171.306042,21.5676563 171.306042,24.0661458 L171.306042,97.0221875 L171.306042,97.0221875 Z" id="Shape" fill="url(#linearGradient-1)"></path>
                <path d="M84.2267708,98.0386458 L94.7420833,98.0386458 L94.7748958,98.0565104 L101.153281,101.586406 C101.28599,101.659323 101.43,101.695052 101.570365,101.695052 C101.875156,101.695052 102.168646,101.533177 102.326146,101.250625 C102.556927,100.833542 102.405625,100.308177 101.99,100.07849 L95.1883333,96.3148958 L95.151875,96.3148958 L84.2271354,96.3148958 C83.7502604,96.3148958 83.3641664,96.7013542 83.3641664,97.1778646 C83.3638021,97.6536458 83.7502604,98.0386458 84.2267708,98.0386458 Z" id="Path" fill="url(#linearGradient-2)"></path>
                <path d="M83.0673958,103.35901 L93.5794271,103.35901 L93.6228125,103.384896 L99.9333854,107.1175 C100.071563,107.199167 100.223229,107.238177 100.37125,107.238177 C100.666563,107.238177 100.953854,107.087969 101.114635,106.814531 C101.357813,106.405104 101.221823,105.876094 100.811667,105.634375 L94.0508333,101.634167 L94.00125,101.634167 L83.0673958,101.634167 C82.5908854,101.634167 82.2044271,102.019896 82.2044271,102.496406 C82.2047917,102.973281 82.5908854,103.35901 83.0673958,103.35901 Z" id="Path" fill="url(#linearGradient-3)"></path>
                <path d="M82.0345312,108.10151 L92.5403646,108.10151 L92.5950521,108.136146 L98.8359896,112.080573 C98.9789062,112.17026 99.1378646,112.213281 99.295,112.213281 C99.5815625,112.213281 99.8611979,112.071458 100.024896,111.81151 C100.279375,111.409375 100.159792,110.877083 99.7576562,110.621875 L93.0391146,106.375937 L92.9760417,106.375937 L82.0348958,106.375937 C81.5583854,106.375937 81.1719271,106.762396 81.1719271,107.238906 C81.1719271,107.715781 81.5583854,108.10151 82.0345312,108.10151 Z" id="Path" fill="url(#linearGradient-4)"></path>
                <path d="M80.845625,113.559688 L91.3736979,113.559688 L91.4174479,113.585573 L97.7283854,117.318542 C97.8658333,117.400208 98.0171354,117.439219 98.16625,117.439219 C98.4615625,117.439219 98.748125,117.288281 98.9096354,117.015573 C99.1520833,116.606146 99.0160938,116.0775 98.6066667,115.835417 L91.8458333,111.834479 L91.79625,111.834479 L80.8463542,111.834479 C80.3694792,111.834479 79.9833852,112.219115 79.9833852,112.695625 C79.9830208,113.173229 80.36875,113.559688 80.845625,113.559688 Z" id="Path" fill="url(#linearGradient-5)"></path>
                <path d="M79.7336458,118.517292 L90.3032813,118.517292 L90.3459375,118.542083 L96.6360938,122.233854 C96.7731771,122.314427 96.92375,122.352344 97.0721354,122.352344 C97.3685417,122.352344 97.6561979,122.201042 97.81625,121.926875 C98.0572396,121.516719 97.9205208,120.987708 97.5089063,120.747812 L90.7725,116.791719 L90.724375,116.791719 L79.7336458,116.791719 C79.2582292,116.791719 78.872499,117.177448 78.872499,117.653958 C78.8717708,118.131927 79.2575,118.517292 79.7336458,118.517292 Z" id="Path" fill="url(#linearGradient-6)"></path>
                <path d="M77.5056771,123.68125 C77.5056771,124.15776 77.8914062,124.54349 78.3668229,124.54349 L89.0060937,124.54349 L89.0429167,124.564635 L95.3188542,128.122604 C95.4526562,128.198073 95.5988542,128.234531 95.7425,128.234531 C96.0436458,128.234531 96.3356771,128.077031 96.4935417,127.798125 C96.7279687,127.383229 96.5835937,126.856771 96.1697917,126.621979 L89.4607292,122.819375 L89.4202604,122.819375 L78.3668229,122.819375 C77.8917708,122.820104 77.5056771,123.20474 77.5056771,123.68125 Z" id="Path" fill="url(#linearGradient-7)"></path>
            </g>
        </g>
    </g>
</svg>